G04 #@! TF.GenerationSoftware,KiCad,Pcbnew,6.0.2+dfsg-1*
G04 #@! TF.CreationDate,2022-10-10T23:20:55+02:00*
G04 #@! TF.ProjectId,buffered_multiple,62756666-6572-4656-945f-6d756c746970,rev?*
G04 #@! TF.SameCoordinates,Original*
G04 #@! TF.FileFunction,Copper,L2,Bot*
G04 #@! TF.FilePolarity,Positive*
%FSLAX46Y46*%
G04 Gerber Fmt 4.6, Leading zero omitted, Abs format (unit mm)*
G04 Created by KiCad (PCBNEW 6.0.2+dfsg-1) date 2022-10-10 23:20:55*
%MOMM*%
%LPD*%
G01*
G04 APERTURE LIST*
G04 #@! TA.AperFunction,ComponentPad*
%ADD10O,3.010000X1.510000*%
G04 #@! TD*
G04 #@! TA.AperFunction,ComponentPad*
%ADD11O,1.600000X3.400000*%
G04 #@! TD*
G04 #@! TA.AperFunction,ComponentPad*
%ADD12O,3.400000X1.600000*%
G04 #@! TD*
G04 #@! TA.AperFunction,SMDPad,CuDef*
%ADD13R,0.508000X1.143000*%
G04 #@! TD*
G04 #@! TA.AperFunction,SMDPad,CuDef*
%ADD14R,1.700000X2.000000*%
G04 #@! TD*
G04 #@! TA.AperFunction,ViaPad*
%ADD15C,0.800000*%
G04 #@! TD*
G04 #@! TA.AperFunction,Conductor*
%ADD16C,0.250000*%
G04 #@! TD*
G04 APERTURE END LIST*
D10*
X192000000Y-115040000D03*
X192000000Y-112500000D03*
X192000000Y-109960000D03*
D11*
X198000000Y-105500000D03*
D12*
X195500000Y-103000000D03*
D11*
X193000000Y-105500000D03*
X212000000Y-105500000D03*
D12*
X209500000Y-103000000D03*
D11*
X207000000Y-105500000D03*
X207000000Y-119500000D03*
D12*
X209500000Y-122000000D03*
D11*
X212000000Y-119500000D03*
X193000000Y-119500000D03*
D12*
X195500000Y-122000000D03*
D11*
X198000000Y-119500000D03*
D13*
X198690000Y-109198000D03*
X199960000Y-109198000D03*
X201230000Y-109198000D03*
X202500000Y-109198000D03*
X203770000Y-109198000D03*
X205040000Y-109198000D03*
X206310000Y-109198000D03*
X206310000Y-115548000D03*
X205040000Y-115548000D03*
X203770000Y-115548000D03*
X202500000Y-115548000D03*
X201230000Y-115548000D03*
X199960000Y-115548000D03*
X198690000Y-115548000D03*
D14*
X204000000Y-106500000D03*
X204000000Y-102500000D03*
X201000000Y-102500000D03*
X201000000Y-106500000D03*
X212500000Y-110500000D03*
X212500000Y-114500000D03*
X209500000Y-114500000D03*
X209500000Y-110500000D03*
X204000000Y-122500000D03*
X204000000Y-118500000D03*
X201000000Y-118500000D03*
X201000000Y-122500000D03*
X195500000Y-119500000D03*
X195500000Y-115500000D03*
X195500000Y-109500000D03*
X195500000Y-105500000D03*
D15*
X202500000Y-105300000D03*
X204600000Y-110600000D03*
X205000000Y-113750000D03*
X209500000Y-112500000D03*
X211100000Y-110500000D03*
X207700000Y-115500000D03*
X204000000Y-120400000D03*
X202500000Y-119600000D03*
X202500000Y-110500000D03*
X202500000Y-113750000D03*
D16*
X206310000Y-108376500D02*
X206310000Y-109198000D01*
X205100000Y-106500000D02*
X206310000Y-107710000D01*
X202800000Y-105300000D02*
X204000000Y-106500000D01*
X204000000Y-106500000D02*
X205100000Y-106500000D01*
X206310000Y-107710000D02*
X206310000Y-108376500D01*
X202500000Y-105300000D02*
X202800000Y-105300000D01*
X201000000Y-107750000D02*
X201350000Y-108100000D01*
X205040000Y-109760000D02*
X205040000Y-109198000D01*
X204600000Y-110600000D02*
X205040000Y-109760000D01*
X201000000Y-106500000D02*
X201000000Y-107750000D01*
X204259500Y-108100000D02*
X205040000Y-108880500D01*
X201350000Y-108100000D02*
X204259500Y-108100000D01*
X205040000Y-108880500D02*
X205040000Y-109198000D01*
X205040000Y-113790000D02*
X205000000Y-113750000D01*
X205040000Y-115548000D02*
X205040000Y-113790000D01*
X209500000Y-110500000D02*
X209500000Y-112500000D01*
X211400000Y-110500000D02*
X211100000Y-110500000D01*
X206358000Y-115500000D02*
X206310000Y-115548000D01*
X207700000Y-115500000D02*
X206358000Y-115500000D01*
X212500000Y-110500000D02*
X211400000Y-110500000D01*
X200390500Y-116800000D02*
X202450000Y-116800000D01*
X204000000Y-118350000D02*
X204000000Y-118500000D01*
X204000000Y-118500000D02*
X204000000Y-120400000D01*
X202450000Y-116800000D02*
X204000000Y-118350000D01*
X199960000Y-115548000D02*
X199960000Y-116369500D01*
X199960000Y-116369500D02*
X200390500Y-116800000D01*
X198690000Y-115548000D02*
X198690000Y-116790000D01*
X201950000Y-119600000D02*
X202500000Y-119600000D01*
X201000000Y-118650000D02*
X201950000Y-119600000D01*
X198690000Y-116790000D02*
X200400000Y-118500000D01*
X201000000Y-118500000D02*
X201000000Y-118650000D01*
X200400000Y-118500000D02*
X201000000Y-118500000D01*
X195500000Y-119000000D02*
X195500000Y-122000000D01*
X202500000Y-110500000D02*
X202500000Y-109198000D01*
X202500000Y-113750000D02*
X202500000Y-115548000D01*
X201000000Y-102500000D02*
X204000000Y-102500000D01*
X204000000Y-102500000D02*
X207000000Y-105500000D01*
X212500000Y-119000000D02*
X212000000Y-119500000D01*
X212500000Y-114500000D02*
X212500000Y-119000000D01*
X210600000Y-114500000D02*
X212500000Y-114500000D01*
X209500000Y-114500000D02*
X210600000Y-114500000D01*
X202100000Y-122500000D02*
X204000000Y-122500000D01*
X201000000Y-122500000D02*
X198000000Y-119500000D01*
X201000000Y-122500000D02*
X202100000Y-122500000D01*
X198690000Y-109198000D02*
X199960000Y-109198000D01*
X201230000Y-114726500D02*
X201230000Y-115548000D01*
X203770000Y-111030000D02*
X203770000Y-111325000D01*
X199960000Y-109515500D02*
X201230000Y-110785500D01*
X201230000Y-112500000D02*
X203770000Y-112500000D01*
X199960000Y-109198000D02*
X199960000Y-109515500D01*
X203770000Y-109198000D02*
X203770000Y-112500000D01*
X203770000Y-115548000D02*
X203770000Y-112500000D01*
X201230000Y-112500000D02*
X201230000Y-114726500D01*
X201230000Y-110785500D02*
X201230000Y-112500000D01*
X195500000Y-113750000D02*
X195500000Y-115000000D01*
X194000000Y-108250000D02*
X194000000Y-112250000D01*
X195500000Y-106750000D02*
X194000000Y-108250000D01*
X195500000Y-105500000D02*
X194400000Y-105500000D01*
X195500000Y-105500000D02*
X195500000Y-106750000D01*
X194400000Y-105500000D02*
X193000000Y-105500000D01*
X194000000Y-112250000D02*
X195500000Y-113750000D01*
X195500000Y-109500000D02*
X196600000Y-109500000D01*
X200349500Y-108000000D02*
X201230000Y-108880500D01*
X198100000Y-108000000D02*
X200349500Y-108000000D01*
X196600000Y-109500000D02*
X198100000Y-108000000D01*
X201230000Y-108880500D02*
X201230000Y-109198000D01*
M02*
