G04 #@! TF.GenerationSoftware,KiCad,Pcbnew,6.0.2+dfsg-1*
G04 #@! TF.CreationDate,2022-10-11T22:50:59+02:00*
G04 #@! TF.ProjectId,buffered_multiple,62756666-6572-4656-945f-6d756c746970,rev?*
G04 #@! TF.SameCoordinates,Original*
G04 #@! TF.FileFunction,Legend,Top*
G04 #@! TF.FilePolarity,Positive*
%FSLAX46Y46*%
G04 Gerber Fmt 4.6, Leading zero omitted, Abs format (unit mm)*
G04 Created by KiCad (PCBNEW 6.0.2+dfsg-1) date 2022-10-11 22:50:59*
%MOMM*%
%LPD*%
G01*
G04 APERTURE LIST*
%ADD10C,0.150000*%
%ADD11C,0.120000*%
G04 APERTURE END LIST*
D10*
X196166666Y-114178571D02*
X196309523Y-114226190D01*
X196357142Y-114273809D01*
X196404761Y-114369047D01*
X196404761Y-114511904D01*
X196357142Y-114607142D01*
X196309523Y-114654761D01*
X196214285Y-114702380D01*
X195833333Y-114702380D01*
X195833333Y-113702380D01*
X196166666Y-113702380D01*
X196261904Y-113750000D01*
X196309523Y-113797619D01*
X196357142Y-113892857D01*
X196357142Y-113988095D01*
X196309523Y-114083333D01*
X196261904Y-114130952D01*
X196166666Y-114178571D01*
X195833333Y-114178571D01*
X197261904Y-114035714D02*
X197261904Y-114702380D01*
X196833333Y-114035714D02*
X196833333Y-114559523D01*
X196880952Y-114654761D01*
X196976190Y-114702380D01*
X197119047Y-114702380D01*
X197214285Y-114654761D01*
X197261904Y-114607142D01*
X197595238Y-114035714D02*
X197976190Y-114035714D01*
X197738095Y-114702380D02*
X197738095Y-113845238D01*
X197785714Y-113750000D01*
X197880952Y-113702380D01*
X197976190Y-113702380D01*
X198166666Y-114035714D02*
X198547619Y-114035714D01*
X198309523Y-114702380D02*
X198309523Y-113845238D01*
X198357142Y-113750000D01*
X198452380Y-113702380D01*
X198547619Y-113702380D01*
X199261904Y-114654761D02*
X199166666Y-114702380D01*
X198976190Y-114702380D01*
X198880952Y-114654761D01*
X198833333Y-114559523D01*
X198833333Y-114178571D01*
X198880952Y-114083333D01*
X198976190Y-114035714D01*
X199166666Y-114035714D01*
X199261904Y-114083333D01*
X199309523Y-114178571D01*
X199309523Y-114273809D01*
X198833333Y-114369047D01*
X199738095Y-114702380D02*
X199738095Y-114035714D01*
X199738095Y-114226190D02*
X199785714Y-114130952D01*
X199833333Y-114083333D01*
X199928571Y-114035714D01*
X200023809Y-114035714D01*
X200738095Y-114654761D02*
X200642857Y-114702380D01*
X200452380Y-114702380D01*
X200357142Y-114654761D01*
X200309523Y-114559523D01*
X200309523Y-114178571D01*
X200357142Y-114083333D01*
X200452380Y-114035714D01*
X200642857Y-114035714D01*
X200738095Y-114083333D01*
X200785714Y-114178571D01*
X200785714Y-114273809D01*
X200309523Y-114369047D01*
X201642857Y-114702380D02*
X201642857Y-113702380D01*
X201642857Y-114654761D02*
X201547619Y-114702380D01*
X201357142Y-114702380D01*
X201261904Y-114654761D01*
X201214285Y-114607142D01*
X201166666Y-114511904D01*
X201166666Y-114226190D01*
X201214285Y-114130952D01*
X201261904Y-114083333D01*
X201357142Y-114035714D01*
X201547619Y-114035714D01*
X201642857Y-114083333D01*
X202880952Y-114702380D02*
X202880952Y-114035714D01*
X202880952Y-114130952D02*
X202928571Y-114083333D01*
X203023809Y-114035714D01*
X203166666Y-114035714D01*
X203261904Y-114083333D01*
X203309523Y-114178571D01*
X203309523Y-114702380D01*
X203309523Y-114178571D02*
X203357142Y-114083333D01*
X203452380Y-114035714D01*
X203595238Y-114035714D01*
X203690476Y-114083333D01*
X203738095Y-114178571D01*
X203738095Y-114702380D01*
X204642857Y-114035714D02*
X204642857Y-114702380D01*
X204214285Y-114035714D02*
X204214285Y-114559523D01*
X204261904Y-114654761D01*
X204357142Y-114702380D01*
X204500000Y-114702380D01*
X204595238Y-114654761D01*
X204642857Y-114607142D01*
X205261904Y-114702380D02*
X205166666Y-114654761D01*
X205119047Y-114559523D01*
X205119047Y-113702380D01*
X205500000Y-114035714D02*
X205880952Y-114035714D01*
X205642857Y-113702380D02*
X205642857Y-114559523D01*
X205690476Y-114654761D01*
X205785714Y-114702380D01*
X205880952Y-114702380D01*
X206214285Y-114702380D02*
X206214285Y-114035714D01*
X206214285Y-113702380D02*
X206166666Y-113750000D01*
X206214285Y-113797619D01*
X206261904Y-113750000D01*
X206214285Y-113702380D01*
X206214285Y-113797619D01*
X206690476Y-114035714D02*
X206690476Y-115035714D01*
X206690476Y-114083333D02*
X206785714Y-114035714D01*
X206976190Y-114035714D01*
X207071428Y-114083333D01*
X207119047Y-114130952D01*
X207166666Y-114226190D01*
X207166666Y-114511904D01*
X207119047Y-114607142D01*
X207071428Y-114654761D01*
X206976190Y-114702380D01*
X206785714Y-114702380D01*
X206690476Y-114654761D01*
X207738095Y-114702380D02*
X207642857Y-114654761D01*
X207595238Y-114559523D01*
X207595238Y-113702380D01*
X208500000Y-114654761D02*
X208404761Y-114702380D01*
X208214285Y-114702380D01*
X208119047Y-114654761D01*
X208071428Y-114559523D01*
X208071428Y-114178571D01*
X208119047Y-114083333D01*
X208214285Y-114035714D01*
X208404761Y-114035714D01*
X208500000Y-114083333D01*
X208547619Y-114178571D01*
X208547619Y-114273809D01*
X208071428Y-114369047D01*
X209642857Y-114035714D02*
X209880952Y-114702380D01*
X210119047Y-114035714D01*
X211452380Y-113702380D02*
X211547619Y-113702380D01*
X211642857Y-113750000D01*
X211690476Y-113797619D01*
X211738095Y-113892857D01*
X211785714Y-114083333D01*
X211785714Y-114321428D01*
X211738095Y-114511904D01*
X211690476Y-114607142D01*
X211642857Y-114654761D01*
X211547619Y-114702380D01*
X211452380Y-114702380D01*
X211357142Y-114654761D01*
X211309523Y-114607142D01*
X211261904Y-114511904D01*
X211214285Y-114321428D01*
X211214285Y-114083333D01*
X211261904Y-113892857D01*
X211309523Y-113797619D01*
X211357142Y-113750000D01*
X211452380Y-113702380D01*
X212214285Y-114607142D02*
X212261904Y-114654761D01*
X212214285Y-114702380D01*
X212166666Y-114654761D01*
X212214285Y-114607142D01*
X212214285Y-114702380D01*
X212642857Y-113797619D02*
X212690476Y-113750000D01*
X212785714Y-113702380D01*
X213023809Y-113702380D01*
X213119047Y-113750000D01*
X213166666Y-113797619D01*
X213214285Y-113892857D01*
X213214285Y-113988095D01*
X213166666Y-114130952D01*
X212595238Y-114702380D01*
X213214285Y-114702380D01*
X183116666Y-111952380D02*
X183116666Y-112666666D01*
X183069047Y-112809523D01*
X182973809Y-112904761D01*
X182830952Y-112952380D01*
X182735714Y-112952380D01*
X184069047Y-111952380D02*
X183592857Y-111952380D01*
X183545238Y-112428571D01*
X183592857Y-112380952D01*
X183688095Y-112333333D01*
X183926190Y-112333333D01*
X184021428Y-112380952D01*
X184069047Y-112428571D01*
X184116666Y-112523809D01*
X184116666Y-112761904D01*
X184069047Y-112857142D01*
X184021428Y-112904761D01*
X183926190Y-112952380D01*
X183688095Y-112952380D01*
X183592857Y-112904761D01*
X183545238Y-112857142D01*
X202460333Y-101935142D02*
X202412714Y-101982761D01*
X202269857Y-102030380D01*
X202174619Y-102030380D01*
X202031761Y-101982761D01*
X201936523Y-101887523D01*
X201888904Y-101792285D01*
X201841285Y-101601809D01*
X201841285Y-101458952D01*
X201888904Y-101268476D01*
X201936523Y-101173238D01*
X202031761Y-101078000D01*
X202174619Y-101030380D01*
X202269857Y-101030380D01*
X202412714Y-101078000D01*
X202460333Y-101125619D01*
X203412714Y-102030380D02*
X202841285Y-102030380D01*
X203127000Y-102030380D02*
X203127000Y-101030380D01*
X203031761Y-101173238D01*
X202936523Y-101268476D01*
X202841285Y-101316095D01*
X207108533Y-110926742D02*
X207060914Y-110974361D01*
X206918057Y-111021980D01*
X206822819Y-111021980D01*
X206679961Y-110974361D01*
X206584723Y-110879123D01*
X206537104Y-110783885D01*
X206489485Y-110593409D01*
X206489485Y-110450552D01*
X206537104Y-110260076D01*
X206584723Y-110164838D01*
X206679961Y-110069600D01*
X206822819Y-110021980D01*
X206918057Y-110021980D01*
X207060914Y-110069600D01*
X207108533Y-110117219D01*
X207489485Y-110117219D02*
X207537104Y-110069600D01*
X207632342Y-110021980D01*
X207870438Y-110021980D01*
X207965676Y-110069600D01*
X208013295Y-110117219D01*
X208060914Y-110212457D01*
X208060914Y-110307695D01*
X208013295Y-110450552D01*
X207441866Y-111021980D01*
X208060914Y-111021980D01*
X190990666Y-101284380D02*
X190990666Y-101998666D01*
X190943047Y-102141523D01*
X190847809Y-102236761D01*
X190704952Y-102284380D01*
X190609714Y-102284380D01*
X191990666Y-102284380D02*
X191419238Y-102284380D01*
X191704952Y-102284380D02*
X191704952Y-101284380D01*
X191609714Y-101427238D01*
X191514476Y-101522476D01*
X191419238Y-101570095D01*
X212834666Y-100776380D02*
X212834666Y-101490666D01*
X212787047Y-101633523D01*
X212691809Y-101728761D01*
X212548952Y-101776380D01*
X212453714Y-101776380D01*
X213263238Y-100871619D02*
X213310857Y-100824000D01*
X213406095Y-100776380D01*
X213644190Y-100776380D01*
X213739428Y-100824000D01*
X213787047Y-100871619D01*
X213834666Y-100966857D01*
X213834666Y-101062095D01*
X213787047Y-101204952D01*
X213215619Y-101776380D01*
X213834666Y-101776380D01*
X212580666Y-123128380D02*
X212580666Y-123842666D01*
X212533047Y-123985523D01*
X212437809Y-124080761D01*
X212294952Y-124128380D01*
X212199714Y-124128380D01*
X212961619Y-123128380D02*
X213580666Y-123128380D01*
X213247333Y-123509333D01*
X213390190Y-123509333D01*
X213485428Y-123556952D01*
X213533047Y-123604571D01*
X213580666Y-123699809D01*
X213580666Y-123937904D01*
X213533047Y-124033142D01*
X213485428Y-124080761D01*
X213390190Y-124128380D01*
X213104476Y-124128380D01*
X213009238Y-124080761D01*
X212961619Y-124033142D01*
X190736666Y-122874380D02*
X190736666Y-123588666D01*
X190689047Y-123731523D01*
X190593809Y-123826761D01*
X190450952Y-123874380D01*
X190355714Y-123874380D01*
X191641428Y-123207714D02*
X191641428Y-123874380D01*
X191403333Y-122826761D02*
X191165238Y-123541047D01*
X191784285Y-123541047D01*
X202333333Y-124033142D02*
X202285714Y-124080761D01*
X202142857Y-124128380D01*
X202047619Y-124128380D01*
X201904761Y-124080761D01*
X201809523Y-123985523D01*
X201761904Y-123890285D01*
X201714285Y-123699809D01*
X201714285Y-123556952D01*
X201761904Y-123366476D01*
X201809523Y-123271238D01*
X201904761Y-123176000D01*
X202047619Y-123128380D01*
X202142857Y-123128380D01*
X202285714Y-123176000D01*
X202333333Y-123223619D01*
X202666666Y-123128380D02*
X203285714Y-123128380D01*
X202952380Y-123509333D01*
X203095238Y-123509333D01*
X203190476Y-123556952D01*
X203238095Y-123604571D01*
X203285714Y-123699809D01*
X203285714Y-123937904D01*
X203238095Y-124033142D01*
X203190476Y-124080761D01*
X203095238Y-124128380D01*
X202809523Y-124128380D01*
X202714285Y-124080761D01*
X202666666Y-124033142D01*
X199158333Y-110825142D02*
X199110714Y-110872761D01*
X198967857Y-110920380D01*
X198872619Y-110920380D01*
X198729761Y-110872761D01*
X198634523Y-110777523D01*
X198586904Y-110682285D01*
X198539285Y-110491809D01*
X198539285Y-110348952D01*
X198586904Y-110158476D01*
X198634523Y-110063238D01*
X198729761Y-109968000D01*
X198872619Y-109920380D01*
X198967857Y-109920380D01*
X199110714Y-109968000D01*
X199158333Y-110015619D01*
X200015476Y-110253714D02*
X200015476Y-110920380D01*
X199777380Y-109872761D02*
X199539285Y-110587047D01*
X200158333Y-110587047D01*
D11*
X201480000Y-104500000D02*
X201480000Y-106500000D01*
X203520000Y-106500000D02*
X203520000Y-104500000D01*
X210500000Y-111480000D02*
X208500000Y-111480000D01*
X208500000Y-113520000D02*
X210500000Y-113520000D01*
D10*
X200000000Y-105500000D02*
G75*
G03*
X200000000Y-105500000I-4500000J0D01*
G01*
X214000000Y-105500000D02*
G75*
G03*
X214000000Y-105500000I-4500000J0D01*
G01*
X214000000Y-119500000D02*
G75*
G03*
X214000000Y-119500000I-4500000J0D01*
G01*
X200000000Y-119500000D02*
G75*
G03*
X200000000Y-119500000I-4500000J0D01*
G01*
D11*
X201480000Y-118500000D02*
X201480000Y-120500000D01*
X203520000Y-120500000D02*
X203520000Y-118500000D01*
X196250000Y-113520000D02*
X198250000Y-113520000D01*
X198250000Y-111480000D02*
X196250000Y-111480000D01*
M02*
