M48
; DRILL file {KiCad 6.0.2+dfsg-1} date Mon 10 Oct 2022 11:21:08 PM CEST
; FORMAT={-:-/ absolute / inch / decimal}
; #@! TF.CreationDate,2022-10-10T23:21:08+02:00
; #@! TF.GenerationSoftware,Kicad,Pcbnew,6.0.2+dfsg-1
; #@! TF.FileFunction,Plated,1,2,PTH
FMAT,2
INCH
; #@! TA.AperFunction,Plated,PTH,ViaDrill
T1C0.0157
; #@! TA.AperFunction,Plated,PTH,ComponentDrill
T2C0.0315
; #@! TA.AperFunction,Plated,PTH,ComponentDrill
T3C0.0394
%
G90
G05
T1
X7.9724Y-4.1457
X7.9724Y-4.3504
X7.9724Y-4.4783
X7.9724Y-4.7087
X8.0315Y-4.7402
X8.0551Y-4.3543
X8.0709Y-4.4783
X8.1772Y-4.5472
X8.248Y-4.4291
X8.311Y-4.3504
T3
X7.5591Y-4.3291
X7.5591Y-4.4291
X7.5591Y-4.5291
T2
G00X7.5984Y-4.1181
M15
G01X7.5984Y-4.189
M16
G05
G00X7.5984Y-4.6693
M15
G01X7.5984Y-4.7402
M16
G05
G00X7.6614Y-4.0551
M15
G01X7.7323Y-4.0551
M16
G05
G00X7.7323Y-4.8031
M15
G01X7.6614Y-4.8031
M16
G05
G00X7.7953Y-4.189
M15
G01X7.7953Y-4.1181
M16
G05
G00X7.7953Y-4.7402
M15
G01X7.7953Y-4.6693
M16
G05
G00X8.1496Y-4.1181
M15
G01X8.1496Y-4.189
M16
G05
G00X8.1496Y-4.6693
M15
G01X8.1496Y-4.7402
M16
G05
G00X8.2126Y-4.0551
M15
G01X8.2835Y-4.0551
M16
G05
G00X8.2835Y-4.8031
M15
G01X8.2126Y-4.8031
M16
G05
G00X8.3465Y-4.189
M15
G01X8.3465Y-4.1181
M16
G05
G00X8.3465Y-4.7402
M15
G01X8.3465Y-4.6693
M16
G05
T0
M30
