G04 #@! TF.GenerationSoftware,KiCad,Pcbnew,6.0.2+dfsg-1*
G04 #@! TF.CreationDate,2022-10-11T22:50:59+02:00*
G04 #@! TF.ProjectId,buffered_multiple,62756666-6572-4656-945f-6d756c746970,rev?*
G04 #@! TF.SameCoordinates,Original*
G04 #@! TF.FileFunction,Legend,Bot*
G04 #@! TF.FilePolarity,Positive*
%FSLAX46Y46*%
G04 Gerber Fmt 4.6, Leading zero omitted, Abs format (unit mm)*
G04 Created by KiCad (PCBNEW 6.0.2+dfsg-1) date 2022-10-11 22:50:59*
%MOMM*%
%LPD*%
G01*
G04 APERTURE LIST*
%ADD10C,0.150000*%
%ADD11C,0.120000*%
G04 APERTURE END LIST*
D10*
X213342523Y-102030380D02*
X213437761Y-101982761D01*
X213485380Y-101935142D01*
X213533000Y-101839904D01*
X213533000Y-101554190D01*
X213485380Y-101458952D01*
X213437761Y-101411333D01*
X213342523Y-101363714D01*
X213199666Y-101363714D01*
X213104428Y-101411333D01*
X213056809Y-101458952D01*
X213009190Y-101554190D01*
X213009190Y-101839904D01*
X213056809Y-101935142D01*
X213104428Y-101982761D01*
X213199666Y-102030380D01*
X213342523Y-102030380D01*
X212152047Y-101363714D02*
X212152047Y-102030380D01*
X212580619Y-101363714D02*
X212580619Y-101887523D01*
X212533000Y-101982761D01*
X212437761Y-102030380D01*
X212294904Y-102030380D01*
X212199666Y-101982761D01*
X212152047Y-101935142D01*
X211818714Y-101363714D02*
X211437761Y-101363714D01*
X211675857Y-101030380D02*
X211675857Y-101887523D01*
X211628238Y-101982761D01*
X211533000Y-102030380D01*
X211437761Y-102030380D01*
X213088523Y-123620380D02*
X213183761Y-123572761D01*
X213231380Y-123525142D01*
X213279000Y-123429904D01*
X213279000Y-123144190D01*
X213231380Y-123048952D01*
X213183761Y-123001333D01*
X213088523Y-122953714D01*
X212945666Y-122953714D01*
X212850428Y-123001333D01*
X212802809Y-123048952D01*
X212755190Y-123144190D01*
X212755190Y-123429904D01*
X212802809Y-123525142D01*
X212850428Y-123572761D01*
X212945666Y-123620380D01*
X213088523Y-123620380D01*
X211898047Y-122953714D02*
X211898047Y-123620380D01*
X212326619Y-122953714D02*
X212326619Y-123477523D01*
X212279000Y-123572761D01*
X212183761Y-123620380D01*
X212040904Y-123620380D01*
X211945666Y-123572761D01*
X211898047Y-123525142D01*
X211564714Y-122953714D02*
X211183761Y-122953714D01*
X211421857Y-122620380D02*
X211421857Y-123477523D01*
X211374238Y-123572761D01*
X211279000Y-123620380D01*
X211183761Y-123620380D01*
X193009523Y-122952380D02*
X193104761Y-122904761D01*
X193152380Y-122857142D01*
X193200000Y-122761904D01*
X193200000Y-122476190D01*
X193152380Y-122380952D01*
X193104761Y-122333333D01*
X193009523Y-122285714D01*
X192866666Y-122285714D01*
X192771428Y-122333333D01*
X192723809Y-122380952D01*
X192676190Y-122476190D01*
X192676190Y-122761904D01*
X192723809Y-122857142D01*
X192771428Y-122904761D01*
X192866666Y-122952380D01*
X193009523Y-122952380D01*
X191819047Y-122285714D02*
X191819047Y-122952380D01*
X192247619Y-122285714D02*
X192247619Y-122809523D01*
X192200000Y-122904761D01*
X192104761Y-122952380D01*
X191961904Y-122952380D01*
X191866666Y-122904761D01*
X191819047Y-122857142D01*
X191485714Y-122285714D02*
X191104761Y-122285714D01*
X191342857Y-121952380D02*
X191342857Y-122809523D01*
X191295238Y-122904761D01*
X191200000Y-122952380D01*
X191104761Y-122952380D01*
X192852380Y-103052380D02*
X192852380Y-102385714D01*
X192852380Y-102052380D02*
X192900000Y-102100000D01*
X192852380Y-102147619D01*
X192804761Y-102100000D01*
X192852380Y-102052380D01*
X192852380Y-102147619D01*
X192376190Y-102385714D02*
X192376190Y-103052380D01*
X192376190Y-102480952D02*
X192328571Y-102433333D01*
X192233333Y-102385714D01*
X192090476Y-102385714D01*
X191995238Y-102433333D01*
X191947619Y-102528571D01*
X191947619Y-103052380D01*
X193935428Y-110738095D02*
X193935428Y-111500000D01*
X194316380Y-111119047D02*
X193554476Y-111119047D01*
X194316380Y-112500000D02*
X194316380Y-111928571D01*
X194316380Y-112214285D02*
X193316380Y-112214285D01*
X193459238Y-112119047D01*
X193554476Y-112023809D01*
X193602095Y-111928571D01*
X193411619Y-112880952D02*
X193364000Y-112928571D01*
X193316380Y-113023809D01*
X193316380Y-113261904D01*
X193364000Y-113357142D01*
X193411619Y-113404761D01*
X193506857Y-113452380D01*
X193602095Y-113452380D01*
X193744952Y-113404761D01*
X194316380Y-112833333D01*
X194316380Y-113452380D01*
X193316380Y-113738095D02*
X194316380Y-114071428D01*
X193316380Y-114404761D01*
X190570000Y-106404095D02*
X190522380Y-106308857D01*
X190522380Y-106166000D01*
X190570000Y-106023142D01*
X190665238Y-105927904D01*
X190760476Y-105880285D01*
X190950952Y-105832666D01*
X191093809Y-105832666D01*
X191284285Y-105880285D01*
X191379523Y-105927904D01*
X191474761Y-106023142D01*
X191522380Y-106166000D01*
X191522380Y-106261238D01*
X191474761Y-106404095D01*
X191427142Y-106451714D01*
X191093809Y-106451714D01*
X191093809Y-106261238D01*
X191522380Y-106880285D02*
X190522380Y-106880285D01*
X191522380Y-107451714D01*
X190522380Y-107451714D01*
X191522380Y-107927904D02*
X190522380Y-107927904D01*
X190522380Y-108166000D01*
X190570000Y-108308857D01*
X190665238Y-108404095D01*
X190760476Y-108451714D01*
X190950952Y-108499333D01*
X191093809Y-108499333D01*
X191284285Y-108451714D01*
X191379523Y-108404095D01*
X191474761Y-108308857D01*
X191522380Y-108166000D01*
X191522380Y-107927904D01*
X191141428Y-116326095D02*
X191141428Y-117088000D01*
X191522380Y-118088000D02*
X191522380Y-117516571D01*
X191522380Y-117802285D02*
X190522380Y-117802285D01*
X190665238Y-117707047D01*
X190760476Y-117611809D01*
X190808095Y-117516571D01*
X190617619Y-118468952D02*
X190570000Y-118516571D01*
X190522380Y-118611809D01*
X190522380Y-118849904D01*
X190570000Y-118945142D01*
X190617619Y-118992761D01*
X190712857Y-119040380D01*
X190808095Y-119040380D01*
X190950952Y-118992761D01*
X191522380Y-118421333D01*
X191522380Y-119040380D01*
X190522380Y-119326095D02*
X191522380Y-119659428D01*
X190522380Y-119992761D01*
X203261904Y-111952380D02*
X203261904Y-112761904D01*
X203214285Y-112857142D01*
X203166666Y-112904761D01*
X203071428Y-112952380D01*
X202880952Y-112952380D01*
X202785714Y-112904761D01*
X202738095Y-112857142D01*
X202690476Y-112761904D01*
X202690476Y-111952380D01*
X201690476Y-112952380D02*
X202261904Y-112952380D01*
X201976190Y-112952380D02*
X201976190Y-111952380D01*
X202071428Y-112095238D01*
X202166666Y-112190476D01*
X202261904Y-112238095D01*
X206476666Y-102792380D02*
X206810000Y-102316190D01*
X207048095Y-102792380D02*
X207048095Y-101792380D01*
X206667142Y-101792380D01*
X206571904Y-101840000D01*
X206524285Y-101887619D01*
X206476666Y-101982857D01*
X206476666Y-102125714D01*
X206524285Y-102220952D01*
X206571904Y-102268571D01*
X206667142Y-102316190D01*
X207048095Y-102316190D01*
X205524285Y-102792380D02*
X206095714Y-102792380D01*
X205810000Y-102792380D02*
X205810000Y-101792380D01*
X205905238Y-101935238D01*
X206000476Y-102030476D01*
X206095714Y-102078095D01*
X198856666Y-102792380D02*
X199190000Y-102316190D01*
X199428095Y-102792380D02*
X199428095Y-101792380D01*
X199047142Y-101792380D01*
X198951904Y-101840000D01*
X198904285Y-101887619D01*
X198856666Y-101982857D01*
X198856666Y-102125714D01*
X198904285Y-102220952D01*
X198951904Y-102268571D01*
X199047142Y-102316190D01*
X199428095Y-102316190D01*
X198475714Y-101887619D02*
X198428095Y-101840000D01*
X198332857Y-101792380D01*
X198094761Y-101792380D01*
X197999523Y-101840000D01*
X197951904Y-101887619D01*
X197904285Y-101982857D01*
X197904285Y-102078095D01*
X197951904Y-102220952D01*
X198523333Y-102792380D01*
X197904285Y-102792380D01*
X212666666Y-117270380D02*
X213000000Y-116794190D01*
X213238095Y-117270380D02*
X213238095Y-116270380D01*
X212857142Y-116270380D01*
X212761904Y-116318000D01*
X212714285Y-116365619D01*
X212666666Y-116460857D01*
X212666666Y-116603714D01*
X212714285Y-116698952D01*
X212761904Y-116746571D01*
X212857142Y-116794190D01*
X213238095Y-116794190D01*
X212333333Y-116270380D02*
X211714285Y-116270380D01*
X212047619Y-116651333D01*
X211904761Y-116651333D01*
X211809523Y-116698952D01*
X211761904Y-116746571D01*
X211714285Y-116841809D01*
X211714285Y-117079904D01*
X211761904Y-117175142D01*
X211809523Y-117222761D01*
X211904761Y-117270380D01*
X212190476Y-117270380D01*
X212285714Y-117222761D01*
X212333333Y-117175142D01*
X209666666Y-117270380D02*
X210000000Y-116794190D01*
X210238095Y-117270380D02*
X210238095Y-116270380D01*
X209857142Y-116270380D01*
X209761904Y-116318000D01*
X209714285Y-116365619D01*
X209666666Y-116460857D01*
X209666666Y-116603714D01*
X209714285Y-116698952D01*
X209761904Y-116746571D01*
X209857142Y-116794190D01*
X210238095Y-116794190D01*
X208809523Y-116603714D02*
X208809523Y-117270380D01*
X209047619Y-116222761D02*
X209285714Y-116937047D01*
X208666666Y-116937047D01*
X206476666Y-123112380D02*
X206810000Y-122636190D01*
X207048095Y-123112380D02*
X207048095Y-122112380D01*
X206667142Y-122112380D01*
X206571904Y-122160000D01*
X206524285Y-122207619D01*
X206476666Y-122302857D01*
X206476666Y-122445714D01*
X206524285Y-122540952D01*
X206571904Y-122588571D01*
X206667142Y-122636190D01*
X207048095Y-122636190D01*
X205619523Y-122112380D02*
X205810000Y-122112380D01*
X205905238Y-122160000D01*
X205952857Y-122207619D01*
X206048095Y-122350476D01*
X206095714Y-122540952D01*
X206095714Y-122921904D01*
X206048095Y-123017142D01*
X206000476Y-123064761D01*
X205905238Y-123112380D01*
X205714761Y-123112380D01*
X205619523Y-123064761D01*
X205571904Y-123017142D01*
X205524285Y-122921904D01*
X205524285Y-122683809D01*
X205571904Y-122588571D01*
X205619523Y-122540952D01*
X205714761Y-122493333D01*
X205905238Y-122493333D01*
X206000476Y-122540952D01*
X206048095Y-122588571D01*
X206095714Y-122683809D01*
X198856666Y-123112380D02*
X199190000Y-122636190D01*
X199428095Y-123112380D02*
X199428095Y-122112380D01*
X199047142Y-122112380D01*
X198951904Y-122160000D01*
X198904285Y-122207619D01*
X198856666Y-122302857D01*
X198856666Y-122445714D01*
X198904285Y-122540952D01*
X198951904Y-122588571D01*
X199047142Y-122636190D01*
X199428095Y-122636190D01*
X197951904Y-122112380D02*
X198428095Y-122112380D01*
X198475714Y-122588571D01*
X198428095Y-122540952D01*
X198332857Y-122493333D01*
X198094761Y-122493333D01*
X197999523Y-122540952D01*
X197951904Y-122588571D01*
X197904285Y-122683809D01*
X197904285Y-122921904D01*
X197951904Y-123017142D01*
X197999523Y-123064761D01*
X198094761Y-123112380D01*
X198332857Y-123112380D01*
X198428095Y-123064761D01*
X198475714Y-123017142D01*
X195554666Y-114095380D02*
X195888000Y-113619190D01*
X196126095Y-114095380D02*
X196126095Y-113095380D01*
X195745142Y-113095380D01*
X195649904Y-113143000D01*
X195602285Y-113190619D01*
X195554666Y-113285857D01*
X195554666Y-113428714D01*
X195602285Y-113523952D01*
X195649904Y-113571571D01*
X195745142Y-113619190D01*
X196126095Y-113619190D01*
X195221333Y-113095380D02*
X194554666Y-113095380D01*
X194983238Y-114095380D01*
X195681666Y-111936380D02*
X196015000Y-111460190D01*
X196253095Y-111936380D02*
X196253095Y-110936380D01*
X195872142Y-110936380D01*
X195776904Y-110984000D01*
X195729285Y-111031619D01*
X195681666Y-111126857D01*
X195681666Y-111269714D01*
X195729285Y-111364952D01*
X195776904Y-111412571D01*
X195872142Y-111460190D01*
X196253095Y-111460190D01*
X195110238Y-111364952D02*
X195205476Y-111317333D01*
X195253095Y-111269714D01*
X195300714Y-111174476D01*
X195300714Y-111126857D01*
X195253095Y-111031619D01*
X195205476Y-110984000D01*
X195110238Y-110936380D01*
X194919761Y-110936380D01*
X194824523Y-110984000D01*
X194776904Y-111031619D01*
X194729285Y-111126857D01*
X194729285Y-111174476D01*
X194776904Y-111269714D01*
X194824523Y-111317333D01*
X194919761Y-111364952D01*
X195110238Y-111364952D01*
X195205476Y-111412571D01*
X195253095Y-111460190D01*
X195300714Y-111555428D01*
X195300714Y-111745904D01*
X195253095Y-111841142D01*
X195205476Y-111888761D01*
X195110238Y-111936380D01*
X194919761Y-111936380D01*
X194824523Y-111888761D01*
X194776904Y-111841142D01*
X194729285Y-111745904D01*
X194729285Y-111555428D01*
X194776904Y-111460190D01*
X194824523Y-111412571D01*
X194919761Y-111364952D01*
X207580000Y-114786000D02*
X207580000Y-109960000D01*
X207580000Y-109960000D02*
X197420000Y-109960000D01*
X198055000Y-111738000D02*
X197420000Y-111738000D01*
X197420000Y-109960000D02*
X197420000Y-114786000D01*
X198055000Y-113008000D02*
X198055000Y-111738000D01*
X197420000Y-114786000D02*
X207580000Y-114786000D01*
X197420000Y-113008000D02*
X198055000Y-113008000D01*
D11*
X205070000Y-105500000D02*
X205070000Y-103500000D01*
X202930000Y-103500000D02*
X202930000Y-105500000D01*
X199930000Y-103500000D02*
X199930000Y-105500000D01*
X202070000Y-105500000D02*
X202070000Y-103500000D01*
X211430000Y-111500000D02*
X211430000Y-113500000D01*
X213570000Y-113500000D02*
X213570000Y-111500000D01*
X210570000Y-113500000D02*
X210570000Y-111500000D01*
X208430000Y-111500000D02*
X208430000Y-113500000D01*
X202930000Y-119500000D02*
X202930000Y-121500000D01*
X205070000Y-121500000D02*
X205070000Y-119500000D01*
X199930000Y-119500000D02*
X199930000Y-121500000D01*
X202070000Y-121500000D02*
X202070000Y-119500000D01*
X196570000Y-118500000D02*
X196570000Y-116500000D01*
X194430000Y-116500000D02*
X194430000Y-118500000D01*
X194430000Y-106500000D02*
X194430000Y-108500000D01*
X196570000Y-108500000D02*
X196570000Y-106500000D01*
M02*
